<svg width="18" height="18" viewBox="0 0 18 18" fill="none" xmlns="http://www.w3.org/2000/svg">
<path fill-rule="evenodd" clip-rule="evenodd" d="M8.99996 5.875C7.27407 5.875 5.87496 7.27411 5.87496 9C5.87496 10.7259 7.27407 12.125 8.99996 12.125C10.7259 12.125 12.125 10.7259 12.125 9C12.125 7.27411 10.7259 5.875 8.99996 5.875ZM4.62496 9C4.62496 6.58376 6.58372 4.625 8.99996 4.625C11.4162 4.625 13.375 6.58376 13.375 9C13.375 11.4162 11.4162 13.375 8.99996 13.375C6.58372 13.375 4.62496 11.4162 4.62496 9Z" fill="white"/>
<path fill-rule="evenodd" clip-rule="evenodd" d="M6.32359 0.663036C6.49524 0.607624 6.68247 0.629077 6.83715 0.721881L8.66409 1.81805C8.88803 1.80804 9.1123 1.80805 9.33624 1.81807L11.1556 0.729322C11.309 0.637524 11.4943 0.615808 11.6648 0.669662C12.8587 1.04687 13.9564 1.67904 14.8819 2.52243C15.0145 2.64333 15.0888 2.81543 15.0858 2.9949L15.0501 5.11852C15.1734 5.30797 15.2866 5.50385 15.3892 5.70533L17.2412 6.735C17.3971 6.8217 17.5086 6.97092 17.5474 7.14506C17.8199 8.36543 17.8228 9.63057 17.5559 10.8522C17.5175 11.0278 17.4053 11.1784 17.2481 11.2655L15.3889 12.2952C15.2864 12.4965 15.1733 12.6922 15.0501 12.8815L15.0858 15.0051C15.0888 15.1846 15.0145 15.3567 14.8819 15.4776C13.9584 16.3191 12.8653 16.9531 11.6763 17.337C11.5047 17.3924 11.3175 17.3709 11.1628 17.2781L9.33583 16.182C9.1119 16.192 8.88762 16.192 8.66369 16.1819L6.84434 17.2707C6.69094 17.3625 6.50558 17.3842 6.33511 17.3303C5.14118 16.9531 4.04349 16.321 3.11804 15.4776C2.98537 15.3567 2.91108 15.1845 2.91411 15.0051L2.9499 12.8863C2.82726 12.6948 2.71418 12.4975 2.61107 12.2949L0.758756 11.265C0.602813 11.1783 0.49136 11.0291 0.452481 10.8549C0.180007 9.63457 0.177132 8.36943 0.444055 7.14783C0.482431 6.97221 0.594574 6.82161 0.751837 6.73451L2.61099 5.70482C2.71348 5.50352 2.8266 5.30781 2.94986 5.11852L2.91411 2.9949C2.91109 2.81542 2.98538 2.64331 3.11806 2.52241C4.04156 1.68087 5.13458 1.04686 6.32359 0.663036ZM4.1688 3.26302L4.203 5.29417C4.20521 5.42576 4.16583 5.55469 4.09047 5.66258C3.92283 5.90259 3.77607 6.15652 3.65178 6.42158C3.59591 6.54074 3.50384 6.63923 3.38871 6.703L1.61101 7.68757C1.45551 8.5557 1.45767 9.4448 1.61739 10.3122L3.38961 11.2975C3.50387 11.361 3.59533 11.4588 3.65113 11.577C3.77814 11.8462 3.92628 12.1048 4.09416 12.3506C4.16715 12.4574 4.20518 12.5843 4.203 12.7137L4.16882 14.7369C4.84437 15.3076 5.61689 15.7524 6.44959 16.0502L8.18684 15.0106C8.29686 14.9447 8.42447 14.9143 8.55237 14.9235C8.85038 14.9448 9.14954 14.9448 9.44756 14.9235C9.5757 14.9143 9.70355 14.9448 9.81371 15.0109L11.5566 16.0567C12.3865 15.7542 13.1566 15.3074 13.8311 14.737L13.7969 12.7058C13.7947 12.5742 13.8341 12.4453 13.9095 12.3374C14.0771 12.0974 14.2239 11.8435 14.3481 11.5784C14.404 11.4593 14.4961 11.3608 14.6112 11.297L16.3889 10.3124C16.5444 9.4443 16.5423 8.55521 16.3825 7.68783L14.6103 6.7025C14.4956 6.63872 14.4039 6.54043 14.3481 6.42158C14.2239 6.15652 14.0771 5.90259 13.9095 5.66258C13.8341 5.55469 13.7947 5.42576 13.7969 5.29417L13.8311 3.26311C13.1556 2.69242 12.383 2.24759 11.5503 1.94982L9.81309 2.98943C9.70306 3.05527 9.57545 3.08568 9.44756 3.07653C9.14954 3.05522 8.85038 3.05522 8.55237 3.07653C8.42423 3.0857 8.29637 3.05516 8.18621 2.98906L6.44337 1.94335C5.61339 2.24585 4.84335 2.69261 4.1688 3.26302Z" fill="white"/>
</svg>
